<?xml version="1.0" encoding="UTF-8"?>
<svg id="Layer_1" data-name="Layer 1" xmlns="http://www.w3.org/2000/svg" viewBox="0 0 388.03 235.48">
  <defs>
    <style>
      .cls-1 {
        fill: #fff;
      }
    </style>
  </defs>
  <path class="cls-1" d="M324.06,235.09c-2.46.35-5.73.33-6.93-.56l-9.3-13.87-.35,14.63h-7.56s.05-30.49.05-30.49c2.59-2.3,6.81-.51,8.53,2.17l7.68,11.94.48-14.92,7.27.18.12,30.92Z"/>
  <path class="cls-1" d="M26.32,234.95l-8.82.43-7.09-12.81c-1.58,1.5-2.63,3.75-2.65,5.91l-.06,6.8-7.44.11v-31.28s7.28-.07,7.28-.07l.71,10.49,8.39-10.19c2.29-.58,6.1-.45,9.27.04l-10.42,12.48,10.83,18.09Z"/>
  <path class="cls-1" d="M211.04,219.29c-.15,6.91-.99,13.69-8.48,15.34-4.24.93-9.37.8-14.71.73l-.1-31.54,11.8.27c8.53.19,11.66,7.07,11.48,15.2ZM202.65,225.48c.35-5.11.37-8.34-.22-12.54-.29-2.05-6.25-2.97-7.35-1.08l.08,16.22c2.41,1.32,7.33-.27,7.49-2.6Z"/>
  <path class="cls-1" d="M86.56,226.88c-.99,6.16-6.36,8.53-11.17,8.57-4.52.04-10.15-2.44-11.14-8.01-.84-4.7-.76-10.6-.07-15.52.69-4.96,6.31-7.79,10.3-8.1,4.69-.35,10.64,2.25,11.85,7.53,1.04,4.53,1.02,10.57.23,15.52ZM78.67,212.1c-1.8-1.74-5.97-1.78-6.68.63-2.16,7.32-1.11,15.63,3.4,16.12,3.92.42,5.56-8.51,3.29-16.75Z"/>
  <path class="cls-1" d="M380.33,224.47c-1.11-.79-4.33-.53-4.35-1.43l-.11-5.22,11.77-.3c.58,3.92.73,8.85-1.25,12.65-2.1,4.04-6.75,5.41-10.97,5.3-3.52-.08-9.12-2.53-10.05-7.17-1.05-5.25-1.07-11.88.02-17.1,1.1-5.25,7.47-7.34,11.66-7.04,5.43.39,9.93,3.44,10.86,9.78-8.2,2.38-8.53-3.16-12.29-3.18-1.31,0-3.66,2.66-3.66,4l.02,10.07c0,1.67,2.83,3.85,4.39,3.98,1.76.14,5.28-3.32,3.95-4.36Z"/>
  <path class="cls-1" d="M369.18,189.47l-.55-17.26-5.05,10.2c-.57,1.15-3.72,3.03-4.37,1.91l-6.76-12.54-.67,18.09-4.03-.37-.02-27.43c0-.82,3.03-2.07,3.66-1.55.79.65,1.57,1.89,2.26,3.33l7.1,14.74,8.37-17.68,4.75-.09-.1,29.13-4.61-.49Z"/>
  <path class="cls-1" d="M42.3,189.9l-4.35-9.38c-1.09-2.36-5.57-3.97-6.96-2.12l-.25,11.45-4.76-.1v-29.01s11.97-.05,11.97-.05c4.28-.02,7.47,2.45,8.53,6.04,1.21,4.07-.38,7.81-5.24,10.47l6.05,12.48-4.99.23ZM39.86,173.26c1.38-.1,2.62-3.77,2.33-4.94s-2.08-3.43-3.29-3.47l-8.05-.25.06,9.33,8.95-.67Z"/>
  <path class="cls-1" d="M314.09,179.33c.02,6.51-4.14,10.61-10.16,10.59l-10.86-.03v-29s11.87-.18,11.87-.18c5.55-.08,9.1,4.88,9.12,9.91l.03,8.71ZM308.67,182.94c1.95-4.25,1.97-11.86-.15-15.67-1.97-3.54-8.12-2.97-10.74-2.07l.05,20.14c2.54.93,8.94,1.77,10.84-2.4Z"/>
  <path class="cls-1" d="M149.67,188.95l-5.42-10.36c-.62-1.18-4.95-1-5.79-.34l-.15,10.96-4.34.57-.03-29.11,13.01.13c4.08.04,7.29,4.09,7.6,7.6.35,3.93-1.99,7.11-5.81,9.02l6.39,11.74c-.57.88-4.82.99-5.44-.21ZM147.51,173.38c1.61-.08,3.09-4.48,2.37-5.91-.63-1.25-3.18-2.98-4.64-2.9l-6.89.34.03,8.9,9.14-.43Z"/>
  <path class="cls-1" d="M250.84,171.9l10.19,17.72-5.03.12-8.26-14c-4.62,3.72-5.57,8.04-4.88,13.23.12,1.28-4.75,1.02-4.75-.43l-.05-26.36c.1-1.08,4.02-1.83,4.62-1.31l.41,13.98,11.15-13.27c.85-1.01,4.56-.91,5.77-.61l-9.17,10.94Z"/>
  <polygon class="cls-1" points="147.92 228.7 147.64 235.32 127.54 235.46 127.45 204.17 134.87 204.12 135.07 228.47 147.92 228.7"/>
  <polygon class="cls-1" points="75.03 189.38 70.91 189.9 70.67 176.96 59.02 177.05 58.78 189.79 54.02 189.69 54 160.85 58.86 160.74 58.88 172.9 70.81 172.86 70.82 160.71 75.02 160.84 75.03 189.38"/>
  <path class="cls-1" d="M14.01,177.05l-8.97.04-.25,8.81h14.14s-.05,3.95-.05,3.95l-18.59.06.07-29.18h18.54s.04,3.98.04,3.98H4.82s.09,8.18.09,8.18l9.86.02c.93,0,2.73,1.76,2.43,2.56s-2.15,1.58-3.2,1.58Z"/>
  <path class="cls-1" d="M123.72,176.96l-10.94-.08-.15,8.93,12.97.21c1.25.02,1.53,3.82.28,3.82l-17.95.02-.05-29.15h18.88s.07,4.02.07,4.02l-14.19-.08.02,8.22,9.16.04c.72,0,2.24.49,2.78.74.73.35-.02,3.31-.88,3.31Z"/>
  <path class="cls-1" d="M336.58,176.93l-10.16-.03-.41,8.96,13.45.15c1.23.01,1.52,3.83.43,3.83l-18.02.03-.04-29.17,18.83.02-.12,3.13c-.02.6-1.9.87-2.63.86l-11.87-.06v8.16s11.89.22,11.89.22l.81,2.27c.17.47-1.57,1.62-2.18,1.62Z"/>
  <path class="cls-1" d="M226.85,184.28l-12.02-.2-1.68,4.71c-.41,1.15-3.8,1.2-5,.83l9.8-26.73c.34-.91,1.73-2.34,2.52-2.44,1-.12,2.58,1.5,2.96,2.55l9.65,26.6c-1.48.11-3.57.23-4.37.02-1.01-.27-1.2-2.29-1.88-5.34ZM225.43,180.2l-4.82-12.37-4.35,12.4,9.17-.03Z"/>
  <path class="cls-1" d="M281.92,184.32c-3.44-.44-8.81-.52-12.13-.21l-1.65,4.7c-.4,1.15-3.71,1.19-5,.8l9.79-26.83c.28-.78,1.78-2.22,2.58-2.33,1-.14,2.46,1.51,2.86,2.62l9.7,26.58-4.36.03c-1.04,0-1.28-2.57-1.79-5.34ZM280.47,180.21l-4.94-12.17-4.31,12.11,9.24.05Z"/>
  <path class="cls-1" d="M201.05,174.65c1.85.43,3.81,4.82,3.82,6.72,0,1.94-1.68,5.42-3.6,6.64-5.8,3.69-13.13,2.93-17.46-1.71l3.09-2.61c3.28,2.61,8.63,3.24,11.86,1.01,1.02-.7,1.66-4.07.89-4.98-3.6-4.24-14.97-1.18-15-10.48-.02-5.16,3.39-8.75,9.44-8.8,2.42-.02,6.8,1.04,8.58,2.21.49.32-.14,3-.72,2.91l-2.77-.45c-2.02-.33-5.84-.74-7.97-.15-1.13.31-2.56,3.2-2.39,4.35.19,1.34,2.38,3.01,3.9,3.37l8.34,1.95Z"/>
  <polygon class="cls-1" points="258.81 235.21 250.98 235.31 250.9 204.41 258.73 204.1 258.81 235.21"/>
  <path class="cls-1" d="M98.12,161.43c.89-.3,3.53-.56,4.87-.59l-8.75,26.36-1.02,2.58c-.31.79-3.19-.14-3.71-.56l-9.12-27.68,3-.99c.8-.26,1.79,1.57,2.09,2.44l6.17,17.92,6.47-19.48Z"/>
  <path class="cls-1" d="M175.64,163.37c.28-.85,1.16-2.84,1.97-2.67l3.42.72-9.64,28.53c-1.57-.02-3.78-.87-4.11-1.91l-8.55-26.36c.46-1.34,4.26-1.04,4.65.17l6.27,19.49,6-17.98Z"/>
  <rect class="cls-1" x="382.04" y="160.68" width="4.76" height="29.21"/>
  <g>
    <polygon class="cls-1" points="270.68 78.61 270.84 91.18 328.51 91.2 328.5 143.58 223.92 143.6 223.9 26.32 386.73 26.31 386.74 143.56 340 143.54 339.98 78.61 270.68 78.61"/>
    <polygon class="cls-1" points="65.84 143.61 65.78 91.19 156.61 91.2 156.92 78.62 65.78 78.61 65.77 .06 117.88 0 117.95 26.3 209.34 26.33 209.38 143.58 65.84 143.61"/>
    <rect class="cls-1" x="-13.08" y="78" width="78.97" height="52.26" transform="translate(-77.73 130.52) rotate(-89.99)"/>
    <rect class="cls-1" x=".34" y="-.28" width="51.88" height="52.53" transform="translate(.28 52.25) rotate(-89.95)"/>
  </g>
</svg>